<svg xmlns="http://www.w3.org/2000/svg" version="1.1" xmlns:xlink="http://www.w3.org/1999/xlink" width="512" height="512" x="0" y="0" viewBox="0 0 32 32" style="enable-background:new 0 0 512 512" xml:space="preserve" class=""><g><path fill="#263238" d="m2.941 13.496 10.008 6.672c.826.55 1.91.854 3.051.854s2.225-.303 3.05-.854l10.009-6.672c.937-.625 1.474-1.534 1.474-2.496s-.537-1.871-1.474-2.496L19.05 1.832C17.398.73 14.6.73 12.949 1.832L2.941 8.504c-.937.625-1.474 1.534-1.474 2.496s.537 1.871 1.474 2.496zm1.11-3.328 10.008-6.672c.494-.329 1.202-.518 1.941-.518s1.447.189 1.941.518l10.008 6.672c.371.248.584.55.584.832s-.213.584-.584.832l-10.008 6.672c-.988.658-2.894.658-3.882 0L4.05 11.832c-.371-.248-.584-.55-.584-.832s.213-.584.584-.832z" opacity="1" data-original="#263238" class=""></path><path fill="#4d43e4" d="m28.976 16.146-10.96 7.313a.833.833 0 0 0-.075.045c-1.033.69-2.85.69-3.882 0l-.074-.045-10.96-7.313a1 1 0 0 0-1.11 1.664l11.03 7.36a.824.824 0 0 0 .084.05c.844.536 1.908.803 2.971.803s2.127-.267 2.97-.802a.93.93 0 0 0 .085-.051l11.03-7.36a1 1 0 1 0-1.11-1.664z" opacity="1" data-original="#3498db" class=""></path><path fill="#263238" d="m28.976 21.146-10.96 7.313a.833.833 0 0 0-.075.045c-1.033.69-2.85.69-3.882 0l-.074-.045-10.96-7.313a1.001 1.001 0 0 0-1.11 1.664l11.03 7.36a.824.824 0 0 0 .084.05c.844.536 1.908.803 2.971.803s2.127-.267 2.97-.802a.93.93 0 0 0 .085-.051l11.03-7.36a1 1 0 1 0-1.11-1.664z" opacity="1" data-original="#263238" class=""></path></g></svg>